<mxfile host="Electron" agent="Mozilla/5.0 (Windows NT 10.0; Win64; x64) AppleWebKit/537.36 (KHTML, like Gecko) draw.io/28.1.2 Chrome/138.0.7204.243 Electron/37.4.0 Safari/537.36" version="28.1.2">
  <diagram name="Page-1" id="LL499VhabzhlSytY0TDs">
    <mxGraphModel dx="1409" dy="679" grid="1" gridSize="10" guides="1" tooltips="1" connect="1" arrows="1" fold="1" page="1" pageScale="1" pageWidth="850" pageHeight="1100" math="0" shadow="0">
      <root>
        <mxCell id="0" />
        <mxCell id="1" parent="0" />
        <mxCell id="SQ9iHrDhHutyxBgM-zXk-1" value="" style="rounded=0;whiteSpace=wrap;html=1;" vertex="1" parent="1">
          <mxGeometry x="230" y="30" width="470" height="640" as="geometry" />
        </mxCell>
        <mxCell id="SQ9iHrDhHutyxBgM-zXk-2" value="&lt;b&gt;&lt;font style=&quot;font-size: 14px;&quot;&gt;Hệ thống SSB 1.0&lt;/font&gt;&lt;/b&gt;" style="text;html=1;align=center;verticalAlign=middle;resizable=0;points=[];autosize=1;strokeColor=none;fillColor=none;" vertex="1" parent="1">
          <mxGeometry x="390" width="140" height="30" as="geometry" />
        </mxCell>
        <mxCell id="SQ9iHrDhHutyxBgM-zXk-3" value="Quản lý" style="shape=umlActor;verticalLabelPosition=bottom;verticalAlign=top;html=1;outlineConnect=0;" vertex="1" parent="1">
          <mxGeometry x="80" y="160" width="30" height="60" as="geometry" />
        </mxCell>
        <mxCell id="SQ9iHrDhHutyxBgM-zXk-6" value="Tài xế" style="shape=umlActor;verticalLabelPosition=bottom;verticalAlign=top;html=1;outlineConnect=0;" vertex="1" parent="1">
          <mxGeometry x="80" y="340" width="30" height="60" as="geometry" />
        </mxCell>
        <mxCell id="SQ9iHrDhHutyxBgM-zXk-7" value="Phụ huynh" style="shape=umlActor;verticalLabelPosition=bottom;verticalAlign=top;html=1;outlineConnect=0;" vertex="1" parent="1">
          <mxGeometry x="80" y="540" width="30" height="60" as="geometry" />
        </mxCell>
        <mxCell id="SQ9iHrDhHutyxBgM-zXk-9" value="Xem danh sách học sinh/tài xế/xe buýt/tuyến đường" style="ellipse;whiteSpace=wrap;html=1;" vertex="1" parent="1">
          <mxGeometry x="365" y="40" width="285" height="40" as="geometry" />
        </mxCell>
        <mxCell id="SQ9iHrDhHutyxBgM-zXk-18" value="Tạo và cập nhật lịch trình" style="ellipse;whiteSpace=wrap;html=1;" vertex="1" parent="1">
          <mxGeometry x="365" y="90" width="190" height="40" as="geometry" />
        </mxCell>
        <mxCell id="SQ9iHrDhHutyxBgM-zXk-19" value="Phân công tài xế/xe buýt" style="ellipse;whiteSpace=wrap;html=1;" vertex="1" parent="1">
          <mxGeometry x="365" y="140" width="190" height="40" as="geometry" />
        </mxCell>
        <mxCell id="SQ9iHrDhHutyxBgM-zXk-21" value="Theo dõi vị trí xe (real-time)" style="ellipse;whiteSpace=wrap;html=1;" vertex="1" parent="1">
          <mxGeometry x="370" y="190" width="190" height="40" as="geometry" />
        </mxCell>
        <mxCell id="SQ9iHrDhHutyxBgM-zXk-22" value="Gửi tin nhắn" style="ellipse;whiteSpace=wrap;html=1;" vertex="1" parent="1">
          <mxGeometry x="365" y="240" width="190" height="40" as="geometry" />
        </mxCell>
        <mxCell id="SQ9iHrDhHutyxBgM-zXk-27" value="" style="endArrow=none;html=1;rounded=0;" edge="1" parent="1" target="SQ9iHrDhHutyxBgM-zXk-9">
          <mxGeometry width="50" height="50" relative="1" as="geometry">
            <mxPoint x="120" y="170" as="sourcePoint" />
            <mxPoint x="190" y="140" as="targetPoint" />
            <Array as="points">
              <mxPoint x="170" y="130" />
              <mxPoint x="230" y="80" />
            </Array>
          </mxGeometry>
        </mxCell>
        <mxCell id="SQ9iHrDhHutyxBgM-zXk-29" value="" style="endArrow=none;html=1;rounded=0;" edge="1" parent="1">
          <mxGeometry width="50" height="50" relative="1" as="geometry">
            <mxPoint x="130" y="185" as="sourcePoint" />
            <mxPoint x="360" y="110" as="targetPoint" />
          </mxGeometry>
        </mxCell>
        <mxCell id="SQ9iHrDhHutyxBgM-zXk-31" value="" style="endArrow=none;html=1;rounded=0;" edge="1" parent="1" target="SQ9iHrDhHutyxBgM-zXk-19">
          <mxGeometry width="50" height="50" relative="1" as="geometry">
            <mxPoint x="140" y="190" as="sourcePoint" />
            <mxPoint x="210" y="170" as="targetPoint" />
          </mxGeometry>
        </mxCell>
        <mxCell id="SQ9iHrDhHutyxBgM-zXk-32" value="" style="endArrow=none;html=1;rounded=0;entryX=0;entryY=0.5;entryDx=0;entryDy=0;" edge="1" parent="1" target="SQ9iHrDhHutyxBgM-zXk-21">
          <mxGeometry width="50" height="50" relative="1" as="geometry">
            <mxPoint x="140" y="200" as="sourcePoint" />
            <mxPoint x="220" y="190" as="targetPoint" />
          </mxGeometry>
        </mxCell>
        <mxCell id="SQ9iHrDhHutyxBgM-zXk-34" value="" style="endArrow=none;html=1;rounded=0;entryX=0;entryY=0.5;entryDx=0;entryDy=0;" edge="1" parent="1" target="SQ9iHrDhHutyxBgM-zXk-22">
          <mxGeometry width="50" height="50" relative="1" as="geometry">
            <mxPoint x="140" y="220" as="sourcePoint" />
            <mxPoint x="200" y="210" as="targetPoint" />
          </mxGeometry>
        </mxCell>
        <mxCell id="SQ9iHrDhHutyxBgM-zXk-37" value="Xem lịch làm việc" style="ellipse;whiteSpace=wrap;html=1;" vertex="1" parent="1">
          <mxGeometry x="372.5" y="290" width="190" height="40" as="geometry" />
        </mxCell>
        <mxCell id="SQ9iHrDhHutyxBgM-zXk-38" value="Xem danh sách học sinh và điểm đón" style="ellipse;whiteSpace=wrap;html=1;" vertex="1" parent="1">
          <mxGeometry x="365" y="340" width="205" height="50" as="geometry" />
        </mxCell>
        <mxCell id="SQ9iHrDhHutyxBgM-zXk-40" value="Báo cáo đón/trả học sinh" style="ellipse;whiteSpace=wrap;html=1;" vertex="1" parent="1">
          <mxGeometry x="365" y="400" width="205" height="50" as="geometry" />
        </mxCell>
        <mxCell id="SQ9iHrDhHutyxBgM-zXk-41" value="Gửi cảnh báo sự cố&amp;nbsp;" style="ellipse;whiteSpace=wrap;html=1;" vertex="1" parent="1">
          <mxGeometry x="370" y="460" width="205" height="50" as="geometry" />
        </mxCell>
        <mxCell id="SQ9iHrDhHutyxBgM-zXk-44" value="" style="endArrow=none;html=1;rounded=0;entryX=0;entryY=0.5;entryDx=0;entryDy=0;" edge="1" parent="1" target="SQ9iHrDhHutyxBgM-zXk-37">
          <mxGeometry width="50" height="50" relative="1" as="geometry">
            <mxPoint x="120" y="350" as="sourcePoint" />
            <mxPoint x="180" y="340" as="targetPoint" />
          </mxGeometry>
        </mxCell>
        <mxCell id="SQ9iHrDhHutyxBgM-zXk-45" value="" style="endArrow=none;html=1;rounded=0;entryX=0;entryY=0.5;entryDx=0;entryDy=0;" edge="1" parent="1" target="SQ9iHrDhHutyxBgM-zXk-38">
          <mxGeometry width="50" height="50" relative="1" as="geometry">
            <mxPoint x="130" y="370" as="sourcePoint" />
            <mxPoint x="190" y="350" as="targetPoint" />
          </mxGeometry>
        </mxCell>
        <mxCell id="SQ9iHrDhHutyxBgM-zXk-47" value="" style="endArrow=none;html=1;rounded=0;entryX=0;entryY=0.5;entryDx=0;entryDy=0;" edge="1" parent="1" target="SQ9iHrDhHutyxBgM-zXk-40">
          <mxGeometry width="50" height="50" relative="1" as="geometry">
            <mxPoint x="130" y="390" as="sourcePoint" />
            <mxPoint x="190" y="380" as="targetPoint" />
          </mxGeometry>
        </mxCell>
        <mxCell id="SQ9iHrDhHutyxBgM-zXk-48" value="" style="endArrow=none;html=1;rounded=0;entryX=0;entryY=0.5;entryDx=0;entryDy=0;" edge="1" parent="1" target="SQ9iHrDhHutyxBgM-zXk-41">
          <mxGeometry width="50" height="50" relative="1" as="geometry">
            <mxPoint x="130" y="410" as="sourcePoint" />
            <mxPoint x="200" y="410" as="targetPoint" />
          </mxGeometry>
        </mxCell>
        <mxCell id="SQ9iHrDhHutyxBgM-zXk-49" value="Theo dõi vị trí xe của con" style="ellipse;whiteSpace=wrap;html=1;" vertex="1" parent="1">
          <mxGeometry x="362.5" y="520" width="205" height="40" as="geometry" />
        </mxCell>
        <mxCell id="SQ9iHrDhHutyxBgM-zXk-50" value="Nhận thông báo xe sắp đến&amp;nbsp;" style="ellipse;whiteSpace=wrap;html=1;" vertex="1" parent="1">
          <mxGeometry x="357.5" y="570" width="205" height="40" as="geometry" />
        </mxCell>
        <mxCell id="SQ9iHrDhHutyxBgM-zXk-51" value="Nhận cảnh báo trễ/sự cố" style="ellipse;whiteSpace=wrap;html=1;" vertex="1" parent="1">
          <mxGeometry x="357.5" y="620" width="205" height="40" as="geometry" />
        </mxCell>
        <mxCell id="SQ9iHrDhHutyxBgM-zXk-53" value="" style="endArrow=none;html=1;rounded=0;entryX=0;entryY=0.5;entryDx=0;entryDy=0;" edge="1" parent="1" target="SQ9iHrDhHutyxBgM-zXk-49">
          <mxGeometry width="50" height="50" relative="1" as="geometry">
            <mxPoint x="120" y="550" as="sourcePoint" />
            <mxPoint x="190" y="510" as="targetPoint" />
          </mxGeometry>
        </mxCell>
        <mxCell id="SQ9iHrDhHutyxBgM-zXk-54" value="" style="endArrow=none;html=1;rounded=0;entryX=0;entryY=0.5;entryDx=0;entryDy=0;" edge="1" parent="1" target="SQ9iHrDhHutyxBgM-zXk-50">
          <mxGeometry width="50" height="50" relative="1" as="geometry">
            <mxPoint x="130" y="570" as="sourcePoint" />
            <mxPoint x="200" y="560" as="targetPoint" />
          </mxGeometry>
        </mxCell>
        <mxCell id="SQ9iHrDhHutyxBgM-zXk-56" value="" style="endArrow=none;html=1;rounded=0;entryX=0;entryY=0.5;entryDx=0;entryDy=0;" edge="1" parent="1" target="SQ9iHrDhHutyxBgM-zXk-51">
          <mxGeometry width="50" height="50" relative="1" as="geometry">
            <mxPoint x="130" y="600" as="sourcePoint" />
            <mxPoint x="210" y="590" as="targetPoint" />
          </mxGeometry>
        </mxCell>
      </root>
    </mxGraphModel>
  </diagram>
</mxfile>
